<?xml version="1.0" standalone="no"?>
<!DOCTYPE svg PUBLIC "-//W3C//DTD SVG 20010904//EN"
 "http://www.w3.org/TR/2001/REC-SVG-20010904/DTD/svg10.dtd">
<svg version="1.0" xmlns="http://www.w3.org/2000/svg"
 width="734.000000pt" height="734.000000pt" viewBox="0 0 734.000000 734.000000"
 preserveAspectRatio="xMidYMid meet">
<metadata>
Created by potrace 1.14, written by Peter Selinger 2001-2017
</metadata>
<g transform="translate(0.000000,734.000000) scale(0.100000,-0.100000)"
fill="#000000" stroke="none">
<path d="M3289 7326 c-2 -2 -31 -7 -64 -11 -33 -3 -69 -8 -80 -10 -11 -2 -33
-4 -50 -5 -43 -3 24 -24 345 -110 63 -16 138 -37 165 -45 28 -8 102 -28 165
-45 63 -16 174 -46 245 -66 121 -33 301 -81 335 -90 8 -2 83 -22 165 -44 83
-23 193 -52 245 -66 52 -14 244 -66 425 -116 182 -49 337 -91 345 -93 31 -7
169 -45 313 -84 82 -23 154 -41 160 -41 16 0 -154 131 -278 214 -436 292 -928
489 -1430 574 -66 12 -138 24 -160 28 -44 7 -838 17 -846 10z"/>
<path d="M2890 7260 c-441 -94 -893 -289 -1285 -554 -352 -237 -703 -583 -942
-927 -136 -195 -293 -476 -368 -659 -14 -36 -32 -78 -40 -95 -27 -60 -114
-333 -145 -453 -30 -121 -54 -236 -65 -317 -3 -22 -8 -51 -10 -65 -6 -33 -15
-102 -25 -197 -8 -79 -6 -651 3 -688 2 -11 8 -51 13 -90 4 -38 8 -72 9 -75 1
-3 5 -30 9 -60 5 -30 20 -107 33 -170 14 -63 28 -127 30 -142 3 -16 8 -28 12
-28 3 0 18 19 32 43 27 43 292 463 333 527 12 19 38 60 58 90 19 30 59 94 89
141 94 151 192 307 240 382 39 61 347 547 442 700 22 35 36 47 54 47 17 0 22
-4 17 -12 -5 -7 -58 -92 -119 -188 -61 -96 -129 -203 -151 -238 -62 -99 -139
-221 -186 -295 -24 -38 -50 -79 -58 -92 -8 -14 -73 -116 -143 -227 -71 -112
-158 -250 -195 -308 -36 -58 -141 -224 -233 -369 -92 -145 -165 -269 -163
-275 3 -6 64 -51 137 -100 145 -97 807 -548 927 -631 41 -28 165 -113 275
-187 110 -75 234 -159 275 -187 41 -28 145 -99 230 -157 85 -58 270 -183 410
-279 140 -95 352 -239 470 -320 118 -80 314 -214 435 -296 121 -83 225 -153
232 -156 6 -2 31 17 55 43 54 58 135 113 213 144 70 27 231 37 303 18 23 -6
45 -8 48 -6 4 5 262 768 268 793 1 6 65 197 141 425 77 228 140 417 140 420 0
3 43 132 95 287 74 222 97 280 107 271 7 -6 13 -17 13 -26 0 -12 -866 -2618
-896 -2695 -5 -15 -2 -17 22 -13 16 2 54 7 85 11 31 3 65 7 75 9 11 2 39 7 64
10 242 37 557 127 810 230 212 87 520 253 675 364 75 54 199 146 205 152 3 3
41 34 85 70 217 176 474 458 656 720 126 180 280 461 364 665 113 273 209 608
240 840 3 22 8 51 11 65 4 26 9 67 24 205 8 83 6 592 -3 680 -21 199 -60 402
-113 599 -32 116 -91 299 -113 351 -5 11 -26 61 -46 110 -141 340 -374 713
-625 1000 -64 74 -276 285 -285 285 -6 0 -79 -208 -164 -463 -85 -254 -197
-589 -248 -744 -80 -240 -97 -283 -114 -283 -10 0 -19 3 -19 7 0 6 490 1477
504 1513 5 12 -5 19 -36 28 -61 17 -639 175 -688 187 -8 2 -55 15 -105 28 -89
24 -528 142 -635 171 -30 8 -165 45 -300 81 -135 37 -292 80 -350 95 -58 16
-140 38 -182 49 -43 12 -113 30 -155 42 -43 11 -103 27 -133 36 -30 9 -59 18
-65 19 -16 3 -199 52 -319 86 -90 25 -110 28 -117 17 -5 -8 -55 -87 -111 -177
-57 -89 -193 -305 -303 -479 -110 -175 -230 -365 -267 -423 -37 -58 -81 -127
-98 -155 -17 -27 -62 -99 -101 -160 -124 -195 -294 -464 -307 -487 -7 -13 -77
-124 -156 -248 -110 -173 -149 -226 -166 -228 -30 -5 -26 5 53 126 34 53 72
112 82 129 11 18 62 99 113 180 51 82 135 214 185 294 51 80 119 188 152 239
33 52 65 102 70 112 6 10 37 60 69 111 32 51 69 108 81 127 13 19 43 67 67
105 25 39 69 108 98 155 29 47 67 108 85 135 18 28 115 181 215 340 101 160
190 300 198 313 8 12 10 22 6 21 -5 -1 -47 -9 -94 -19z m2553 -2908 c0 -37
-37 -159 -143 -476 -120 -359 -145 -426 -161 -426 -11 0 -19 3 -19 7 0 22 194
583 201 583 5 0 9 10 9 23 0 25 102 348 109 342 2 -3 4 -26 4 -53z"/>
<path d="M164 2574 c5 -11 15 -41 23 -67 18 -62 78 -220 103 -274 11 -24 20
-45 20 -48 0 -3 31 -69 70 -146 120 -239 271 -477 434 -679 88 -110 116 -141
266 -291 400 -403 888 -703 1438 -885 190 -63 434 -123 568 -140 23 -2 53 -7
65 -10 13 -3 49 -7 79 -10 30 -3 66 -8 80 -11 41 -9 614 -13 627 -5 9 6 -13
25 -65 60 -42 28 -156 105 -252 171 -96 66 -274 186 -395 268 -121 81 -222
150 -225 154 -3 3 -81 57 -175 120 -443 301 -515 350 -585 398 -41 28 -82 56
-90 61 -8 5 -40 27 -70 48 -30 21 -140 96 -245 167 -104 71 -255 173 -335 228
-80 54 -208 141 -285 193 -77 52 -201 137 -275 188 -74 50 -220 150 -325 221
-104 71 -241 164 -303 207 -62 42 -122 83 -134 89 -19 10 -20 9 -14 -7z"/>
<path d="M3925 529 c-129 -15 -256 -85 -337 -187 -18 -22 -17 -23 70 -80 48
-32 138 -94 200 -136 63 -43 117 -74 121 -70 8 9 151 432 151 446 0 6 -68 23
-120 30 -14 2 -52 0 -85 -3z"/>
</g>
</svg>
