<svg width="160" height="13" viewBox="0 0 160 13" fill="none" xmlns="http://www.w3.org/2000/svg">
<g clip-path="url(#clip0_496_16)">
<path d="M7.89309 8.38624C7.89921 9.00041 7.82271 9.61261 7.66562 10.2064C7.53307 10.7272 7.30307 11.2182 6.98778 11.6534C6.69648 12.0522 6.31646 12.3778 5.87774 12.6044C5.40796 12.8395 4.888 12.9566 4.36281 12.9457C3.87092 12.9561 3.3829 12.8566 2.93432 12.6544C2.53001 12.4549 2.17558 12.1672 1.89707 11.8126L1.80608 12.7773H-0.0136528V0H1.97441V4.64133C2.24945 4.31892 2.59085 4.05972 2.97526 3.88143C3.40486 3.69244 3.87091 3.60077 4.34006 3.61296C4.86903 3.60283 5.39287 3.71822 5.86864 3.94968C6.30928 4.17331 6.6911 4.49754 6.98322 4.89615C7.29946 5.33412 7.5295 5.82827 7.66108 6.35225C7.81974 6.95965 7.89625 7.58559 7.88854 8.21334L7.89309 8.38624ZM5.90503 8.21334C5.90596 7.8317 5.87093 7.45082 5.8004 7.07575C5.74163 6.74307 5.62622 6.42293 5.4592 6.12929C5.30484 5.86358 5.08572 5.64129 4.82229 5.48314C4.48723 5.31352 4.11423 5.23281 3.73904 5.24874C3.36385 5.26468 2.99904 5.37673 2.67956 5.57415C2.37966 5.79159 2.14137 6.08324 1.98806 6.42051V10.1472C2.14291 10.4873 2.3826 10.7819 2.6841 11.0027C3.02717 11.2384 3.4374 11.3566 3.85328 11.3394C4.18835 11.3504 4.52012 11.2702 4.81319 11.1073C5.07483 10.9564 5.29274 10.74 5.44555 10.4794C5.61636 10.1899 5.73493 9.87261 5.79585 9.54203C5.87081 9.16139 5.9074 8.77419 5.90503 8.38624V8.21334Z" fill="white"/>
<path d="M12.9656 0H17.8379V11.1483H20.5903V12.7819H12.9656V11.1346H15.8317V1.65632H12.9656V0Z" fill="white"/>
<path d="M31.3494 11.5623C31.0624 11.989 30.681 12.344 30.2349 12.5998C29.7889 12.8494 29.2855 12.978 28.7745 12.9729C28.3387 12.9783 27.9055 12.9043 27.4962 12.7545C27.113 12.6127 26.7718 12.3763 26.5044 12.0674C26.2073 11.7173 25.9886 11.3077 25.8629 10.8661C25.6968 10.2974 25.6186 9.7066 25.6309 9.11423V3.78125H27.6235V9.14153C27.6167 9.50339 27.6487 9.86494 27.7191 10.22C27.7665 10.4636 27.8675 10.6936 28.0148 10.8934C28.1439 11.0575 28.3177 11.1808 28.5152 11.2483C28.7474 11.3225 28.9903 11.3578 29.234 11.353C29.6843 11.3737 30.1312 11.2647 30.5215 11.039C30.8458 10.8352 31.1036 10.541 31.263 10.1927V3.78125H33.2647V12.7818H31.445L31.3494 11.5623Z" fill="white"/>
<path d="M43.0731 12.9639C42.4509 12.9694 41.8334 12.8567 41.2533 12.6317C40.7266 12.4267 40.2469 12.1171 39.8431 11.7216C39.4508 11.3327 39.1413 10.8683 38.9332 10.3566C38.7153 9.80951 38.6056 9.22537 38.6102 8.63653V8.29525C38.5992 7.63432 38.7166 6.97753 38.9559 6.36137C39.1618 5.8188 39.4708 5.32125 39.8658 4.89616C40.25 4.49261 40.7151 4.17474 41.2306 3.96334C41.7426 3.74518 42.2937 3.6337 42.8502 3.63572C43.4449 3.62307 44.0355 3.73627 44.5834 3.9679C45.0648 4.17116 45.4929 4.48257 45.8345 4.87796C46.1806 5.29261 46.4404 5.77218 46.5988 6.28856C46.7768 6.86931 46.8642 7.47401 46.8581 8.08139V8.9232H40.5982C40.6311 9.25974 40.7187 9.58865 40.8575 9.89697C40.9898 10.1879 41.1749 10.4518 41.4035 10.6751C41.6306 10.8985 41.8996 11.0748 42.195 11.1938C42.5117 11.3206 42.8502 11.384 43.1914 11.3804C43.672 11.3857 44.1477 11.2831 44.5834 11.0801C44.9916 10.8948 45.3478 10.612 45.6207 10.2564L46.7034 11.2712C46.5462 11.4953 46.3595 11.6974 46.1484 11.8718C45.9065 12.0867 45.6373 12.2687 45.3477 12.4133C45.0203 12.5798 44.6755 12.7095 44.3196 12.8001C43.9124 12.9057 43.4937 12.9607 43.0731 12.9639ZM42.832 5.22833C42.5667 5.22579 42.3036 5.27686 42.0586 5.37849C41.8156 5.48416 41.5972 5.6391 41.4171 5.83353C41.2173 6.03764 41.0542 6.2747 40.9349 6.53428C40.7988 6.83212 40.7053 7.14769 40.6574 7.47165H44.8792V7.32149C44.8661 7.0578 44.8156 6.79733 44.729 6.54793C44.6453 6.30545 44.5155 6.08142 44.3469 5.88814C44.1736 5.69213 43.9593 5.53676 43.7191 5.4331C43.4424 5.29884 43.1395 5.22737 42.832 5.22379V5.22833Z" fill="white"/>
<path d="M57.3762 10.3564C57.3802 10.2041 57.343 10.0535 57.2685 9.92051C57.194 9.78756 57.0851 9.67719 56.9531 9.60104C56.7504 9.47617 56.5315 9.37972 56.3025 9.31438C55.9581 9.20549 55.6071 9.11885 55.2516 9.055C54.7604 8.95634 54.277 8.82252 53.8049 8.65457C53.4113 8.51906 53.0379 8.33079 52.6949 8.09489C52.4069 7.89884 52.1648 7.6427 51.9852 7.34409C51.8133 7.04064 51.7268 6.69625 51.735 6.34756C51.7345 5.98274 51.8236 5.62337 51.9943 5.30099C52.1761 4.96266 52.4272 4.6665 52.7313 4.43188C53.0803 4.16445 53.4749 3.96249 53.8959 3.83579C54.3935 3.68051 54.9125 3.60525 55.4336 3.61282C55.9789 3.60562 56.5221 3.68236 57.0441 3.84034C57.4791 3.96991 57.8874 4.17642 58.2496 4.45008C58.5647 4.69357 58.8211 5.00454 59.0003 5.36015C59.1766 5.70839 59.267 6.09375 59.2641 6.48408H57.2761C57.2754 6.30601 57.235 6.13035 57.1578 5.96989C57.0772 5.79352 56.9574 5.63789 56.8075 5.51485C56.6349 5.37921 56.4391 5.27592 56.2297 5.20998C55.9714 5.13335 55.703 5.09652 55.4336 5.10077C55.1711 5.09596 54.9092 5.12813 54.6557 5.19633C54.4606 5.24744 54.2758 5.33213 54.1097 5.4466C53.9745 5.53838 53.8636 5.66177 53.7867 5.80608C53.7163 5.94732 53.6805 6.10328 53.6821 6.26111C53.6801 6.4004 53.7081 6.53851 53.764 6.66609C53.8277 6.80476 53.9304 6.9218 54.0597 7.00281C54.2453 7.12181 54.4478 7.2123 54.6602 7.27128C54.985 7.37063 55.3164 7.44667 55.652 7.4988C56.1685 7.58758 56.6778 7.71381 57.176 7.87647C57.5866 8.00462 57.9771 8.18996 58.3361 8.42706C58.637 8.62403 58.889 8.88703 59.0731 9.19606C59.2519 9.51532 59.3414 9.87682 59.3324 10.2426C59.3373 10.6262 59.2416 11.0043 59.0549 11.3393C58.8652 11.6847 58.5972 11.9808 58.2724 12.2038C57.901 12.4598 57.4887 12.6506 57.0532 12.7681C56.5324 12.9069 55.9952 12.9743 55.4563 12.9683C54.8679 12.9772 54.2822 12.888 53.7231 12.7044C53.2674 12.5508 52.8424 12.3183 52.4674 12.0173C52.144 11.7537 51.8817 11.423 51.6986 11.048C51.5264 10.7081 51.436 10.3325 51.4347 9.95142H53.3682C53.3735 10.2017 53.4474 10.4457 53.582 10.6567C53.71 10.843 53.8779 10.9984 54.0734 11.1118C54.2812 11.233 54.5069 11.3206 54.7421 11.3711C54.9861 11.4218 55.2345 11.4477 55.4837 11.4485C55.9725 11.4787 56.4599 11.3698 56.8894 11.1345C57.0322 11.0596 57.1525 10.9481 57.238 10.8113C57.3236 10.6746 57.3712 10.5176 57.3762 10.3564Z" fill="white"/>
<path d="M65.0736 12.7816V0.664062H68.9497C69.5001 0.665329 70.0484 0.732547 70.5829 0.864278C71.0603 0.976264 71.5125 1.17692 71.9158 1.45582C72.2985 1.7153 72.6111 2.06547 72.8257 2.4751C73.0529 2.93235 73.1623 3.43911 73.1441 3.9494C73.1535 4.50215 72.9774 5.0421 72.6437 5.48286C72.2978 5.92365 71.8409 6.26445 71.3199 6.47028C71.6421 6.55783 71.949 6.69442 72.2297 6.87526C72.4858 7.04455 72.7105 7.25702 72.8939 7.5032C73.0723 7.75152 73.2105 8.02639 73.3034 8.31771C73.3995 8.62391 73.447 8.94326 73.4444 9.26418C73.456 9.78995 73.3471 10.3114 73.126 10.7885C72.9231 11.219 72.6224 11.5961 72.2479 11.8897C71.8491 12.1937 71.397 12.4205 70.915 12.5586C70.3751 12.7139 69.8163 12.7935 69.2545 12.7952L65.0736 12.7816ZM67.0844 5.76043H68.9997C69.2827 5.75377 69.5638 5.71251 69.8368 5.63757C70.0789 5.57071 70.306 5.45795 70.5055 5.3054C70.6941 5.15946 70.8492 4.97482 70.9605 4.76391C71.0746 4.53515 71.1323 4.28238 71.1288 4.02675C71.1357 3.75717 71.0813 3.48954 70.9696 3.2441C70.8652 3.02987 70.7088 2.84525 70.5146 2.70716C70.3098 2.56485 70.0798 2.46292 69.8368 2.40684C69.5549 2.34015 69.2666 2.30505 68.977 2.30218H67.0799L67.0844 5.76043ZM67.0844 7.28478V11.148H69.2636C69.5591 11.1463 69.8525 11.0971 70.1325 11.0024C70.3778 10.918 70.6059 10.7901 70.8058 10.6247C70.9967 10.4611 71.1516 10.2597 71.2607 10.0332C71.3726 9.78767 71.4286 9.52033 71.4245 9.25053C71.4271 8.96977 71.3793 8.69081 71.2835 8.42691C71.1949 8.19529 71.0549 7.9868 70.874 7.81717C70.6867 7.64407 70.465 7.5123 70.2235 7.4304C69.9468 7.33482 69.6563 7.28562 69.3637 7.28478H67.0844Z" fill="white"/>
<path d="M83.6258 3.61276C83.785 3.61276 83.9488 3.61276 84.108 3.61276C84.2673 3.61276 84.4219 3.64006 84.563 3.66282C84.704 3.68557 84.845 3.70831 84.9633 3.73562C85.0694 3.75263 85.1732 3.78164 85.2727 3.82207L84.9906 5.77871C84.394 5.63958 83.7835 5.56935 83.1709 5.5694C82.6027 5.54314 82.0398 5.68905 81.5559 5.98803C81.1409 6.27045 80.8231 6.67407 80.646 7.14381V12.7817H78.6534V3.78112H80.5414L80.6324 5.18717C80.9809 4.71503 81.426 4.32258 81.938 4.03594C82.4537 3.74898 83.0358 3.60302 83.6258 3.61276Z" fill="white"/>
<path d="M95.1265 12.7819C95.0666 12.6569 95.0209 12.5257 94.99 12.3906C94.9536 12.2404 94.9218 12.0811 94.8945 11.9082C94.7551 12.0564 94.6028 12.1919 94.4396 12.3132C94.2567 12.4413 94.0616 12.551 93.8573 12.6408C93.6351 12.7388 93.4033 12.8135 93.1658 12.8638C92.9047 12.924 92.6375 12.953 92.3696 12.9502C91.9304 12.9562 91.4935 12.887 91.0776 12.7455C90.7134 12.6217 90.3767 12.4285 90.0859 12.1767C89.8145 11.9425 89.5971 11.6522 89.449 11.3258C89.2042 10.7617 89.155 10.132 89.3092 9.53671C89.4633 8.94145 89.812 8.41479 90.2997 8.04045C91.0185 7.53081 92.0512 7.27599 93.3978 7.27599H94.8536V6.68446C94.8634 6.47083 94.8252 6.25771 94.7417 6.06083C94.6583 5.86394 94.5317 5.68831 94.3713 5.54687C93.9835 5.24345 93.4979 5.09287 93.0065 5.12369C92.7695 5.11941 92.5332 5.15164 92.3059 5.21925C92.1238 5.2744 91.9539 5.36399 91.8055 5.48317C91.6778 5.58987 91.5753 5.7235 91.5053 5.8745C91.4378 6.02626 91.4036 6.19074 91.4052 6.35683H89.4126C89.414 6.00258 89.4981 5.65355 89.6582 5.33756C89.8323 4.99421 90.0792 4.69296 90.3816 4.45479C90.7275 4.17978 91.1206 3.97008 91.5416 3.83595C92.048 3.67016 92.5785 3.59019 93.1112 3.59934C93.6122 3.59618 94.1112 3.66202 94.5943 3.795C95.0214 3.91354 95.4226 4.11109 95.7771 4.37744C96.1107 4.63418 96.3789 4.96632 96.5596 5.34666C96.7604 5.77305 96.8586 6.24058 96.8462 6.71176V10.7297C96.8426 11.091 96.8715 11.452 96.9326 11.8081C96.9794 12.1003 97.0651 12.385 97.1874 12.6545V12.7819H95.1265ZM92.729 11.3394C93.1942 11.3406 93.6518 11.2215 94.0574 10.9936C94.3808 10.8155 94.6496 10.5528 94.8354 10.2337V8.54098H93.5707C92.9466 8.49685 92.3229 8.63266 91.7737 8.93231C91.5883 9.05248 91.4375 9.21895 91.3362 9.41527C91.2349 9.61159 91.1865 9.83096 91.1959 10.0517C91.1954 10.2257 91.2262 10.3983 91.2869 10.5613C91.3457 10.7179 91.4408 10.8583 91.5644 10.9709C91.6971 11.0891 91.8517 11.1803 92.0193 11.2393C92.2473 11.3188 92.4876 11.3573 92.729 11.3531V11.3394Z" fill="white"/>
<path d="M105.604 11.3803C105.847 11.3799 106.088 11.3399 106.318 11.262C106.536 11.1955 106.742 11.0941 106.928 10.9617C107.099 10.8272 107.243 10.6602 107.351 10.4702C107.451 10.2799 107.502 10.0668 107.496 9.8514H109.38C109.386 10.2778 109.284 10.6988 109.084 11.0754C108.877 11.4582 108.596 11.7955 108.256 12.0674C107.897 12.3597 107.491 12.589 107.055 12.7454C106.595 12.9115 106.11 12.9962 105.622 12.9957C104.997 13.0071 104.376 12.8846 103.802 12.6362C103.298 12.4111 102.851 12.077 102.492 11.6579C102.138 11.2332 101.87 10.7431 101.705 10.2154C101.529 9.6498 101.442 9.06042 101.446 8.46811V8.16778C101.442 7.57551 101.53 6.98623 101.705 6.42046C101.868 5.89193 102.136 5.40148 102.492 4.97801C102.852 4.56032 103.299 4.22642 103.802 3.99969C104.375 3.74714 104.996 3.6229 105.622 3.63566C106.136 3.63207 106.647 3.71673 107.132 3.88593C107.574 4.04014 107.982 4.27807 108.333 4.58668C108.667 4.88564 108.933 5.25156 109.116 5.66056C109.304 6.09048 109.398 6.55623 109.389 7.02566H107.505C107.512 6.78868 107.469 6.5529 107.378 6.334C107.286 6.11964 107.151 5.92615 106.982 5.76521C106.803 5.60265 106.597 5.47323 106.372 5.38299C106.128 5.28612 105.867 5.23819 105.604 5.24192C105.239 5.22739 104.878 5.31571 104.562 5.49675C104.29 5.66153 104.062 5.88942 103.898 6.16109C103.724 6.44955 103.604 6.76713 103.543 7.09846C103.474 7.44919 103.439 7.80577 103.438 8.16324V8.46355C103.438 8.82556 103.473 9.18671 103.543 9.54198C103.607 9.8638 103.727 10.1718 103.898 10.452C104.061 10.7261 104.289 10.9558 104.562 11.1209C104.879 11.3009 105.239 11.3906 105.604 11.3803Z" fill="white"/>
<path d="M117.391 8.85492L116.308 9.88785V12.7819H114.297V0H116.29V7.53988L117.132 6.59797L119.779 3.78132H122.177L118.697 7.53079L122.714 12.7819H120.23L117.391 8.85492Z" fill="white"/>
<path d="M131.116 12.9639C130.494 12.9699 129.877 12.8572 129.297 12.6318C128.768 12.4269 128.287 12.1173 127.882 11.7217C127.488 11.3339 127.178 10.8693 126.972 10.3566C126.752 9.81017 126.642 9.22562 126.649 8.63659V8.29531C126.638 7.63438 126.755 6.97759 126.995 6.36143C127.2 5.81887 127.509 5.32131 127.904 4.89622C128.288 4.49225 128.753 4.17431 129.269 3.9634C129.781 3.74524 130.332 3.63376 130.889 3.63578C131.484 3.62272 132.074 3.73594 132.622 3.96796C133.105 4.17119 133.534 4.48254 133.878 4.87802C134.224 5.2918 134.483 5.77174 134.637 6.28862C134.815 6.86937 134.903 7.47407 134.897 8.08145V8.92326H128.641C128.67 9.26057 128.758 9.5902 128.901 9.89703C129.031 10.1889 129.217 10.453 129.447 10.6751C129.674 10.8986 129.943 11.0748 130.238 11.1939C130.554 11.3202 130.89 11.3836 131.23 11.3804C131.712 11.3857 132.189 11.2831 132.627 11.0801C133.035 10.8949 133.391 10.612 133.664 10.2565L134.747 11.2712C134.588 11.504 134.4 11.7151 134.187 11.8992C133.947 12.1141 133.679 12.2962 133.391 12.4407C132.687 12.7997 131.906 12.9823 131.116 12.973V12.9639ZM130.875 5.22839C130.611 5.22433 130.349 5.2743 130.105 5.37524C129.861 5.47618 129.64 5.62597 129.456 5.81539C129.267 6.0226 129.113 6.2593 129.001 6.51614C128.863 6.81322 128.769 7.12908 128.723 7.4535H132.945V7.32155C132.928 7.05794 132.876 6.79778 132.79 6.54799C132.708 6.30572 132.58 6.08166 132.413 5.8882C132.238 5.69421 132.024 5.53918 131.785 5.43316C131.501 5.2956 131.19 5.22404 130.875 5.22385V5.22839Z" fill="white"/>
<path d="M143.531 1.59732V3.78148H146.962V5.26488H143.554V9.59679C143.546 9.8824 143.587 10.1673 143.677 10.4386C143.742 10.6417 143.858 10.8249 144.014 10.971C144.158 11.1056 144.333 11.2025 144.523 11.2531C144.733 11.3062 144.948 11.3322 145.165 11.3305C145.337 11.3305 145.515 11.3305 145.701 11.3032L146.243 11.2349L146.725 11.153C146.871 11.1211 146.993 11.0938 147.094 11.062L147.321 12.4271C147.155 12.5186 146.982 12.5947 146.802 12.6546C146.586 12.7274 146.364 12.7836 146.138 12.823C145.897 12.8685 145.651 12.9049 145.392 12.9276C145.138 12.9547 144.883 12.9683 144.628 12.9686C144.209 12.9731 143.793 12.9085 143.395 12.7775C143.031 12.6619 142.699 12.4624 142.426 12.195C142.143 11.9077 141.927 11.5611 141.794 11.1803C141.63 10.7017 141.553 10.1979 141.566 9.69235V5.26033H139.364V3.77693H141.566V1.59277L143.531 1.59732Z" fill="white"/>
<path d="M158.039 10.3564C158.046 10.2042 158.01 10.0531 157.936 9.91983C157.862 9.78656 157.753 9.67625 157.621 9.60104C157.418 9.47617 157.199 9.37972 156.97 9.31438C156.626 9.20549 156.275 9.11885 155.919 9.055C155.428 8.95695 154.944 8.82311 154.473 8.65457C154.079 8.51906 153.706 8.33079 153.363 8.09489C153.073 7.90008 152.831 7.64368 152.653 7.34409C152.481 7.04064 152.394 6.69625 152.403 6.34756C152.402 5.98274 152.491 5.62337 152.662 5.30099C152.841 4.96047 153.092 4.66368 153.399 4.43188C153.748 4.16445 154.143 3.96249 154.564 3.83579C155.061 3.68051 155.58 3.60525 156.101 3.61282C156.647 3.60562 157.19 3.68236 157.712 3.84034C158.147 3.96991 158.555 4.17642 158.917 4.45008C159.232 4.69357 159.489 5.00454 159.668 5.36015C159.844 5.70839 159.935 6.09375 159.932 6.48408H157.944C157.943 6.30601 157.903 6.13035 157.825 5.96989C157.745 5.79352 157.625 5.63789 157.475 5.51485C157.302 5.37921 157.107 5.27592 156.897 5.20998C156.639 5.13335 156.371 5.09652 156.101 5.10077C155.839 5.09596 155.577 5.12813 155.323 5.19633C155.128 5.24644 154.943 5.33121 154.777 5.4466C154.641 5.53707 154.53 5.66078 154.454 5.80608C154.384 5.94732 154.348 6.10328 154.35 6.26111C154.348 6.4004 154.376 6.53851 154.432 6.66609C154.495 6.80476 154.598 6.9218 154.727 7.00281C154.913 7.12181 155.115 7.2123 155.328 7.27128C155.651 7.37019 155.981 7.44622 156.315 7.4988C156.833 7.58707 157.344 7.7133 157.844 7.87647C158.254 8.00462 158.645 8.18996 159.004 8.42706C159.305 8.62403 159.557 8.88703 159.741 9.19606C159.919 9.51532 160.009 9.87682 160 10.2426C160.005 10.6262 159.909 11.0043 159.722 11.3393C159.533 11.6847 159.265 11.9808 158.94 12.2038C158.569 12.4598 158.156 12.6506 157.721 12.7681C157.2 12.9069 156.663 12.9743 156.124 12.9683C155.536 12.9772 154.95 12.888 154.391 12.7044C153.935 12.5508 153.51 12.3183 153.135 12.0173C152.812 11.7537 152.549 11.423 152.366 11.048C152.194 10.7081 152.104 10.3325 152.102 9.95142H154.036C154.041 10.2017 154.115 10.4457 154.25 10.6567C154.376 10.844 154.545 10.9997 154.741 11.1118C154.949 11.233 155.174 11.3206 155.41 11.3711C155.654 11.4218 155.902 11.4477 156.151 11.4485C156.64 11.4787 157.127 11.3698 157.557 11.1345C157.699 11.059 157.818 10.9472 157.903 10.8105C157.988 10.6738 158.035 10.5171 158.039 10.3564Z" fill="white"/>
</g>
<defs>
<clipPath id="clip0_496_16">
<rect width="160" height="12.973" fill="white"/>
</clipPath>
</defs>
</svg>
